<?xml version="1.0" encoding="UTF-8" standalone="no"?>
<svg
   xmlns:dc="http://purl.org/dc/elements/1.1/"
   xmlns:cc="http://creativecommons.org/ns#"
   xmlns:rdf="http://www.w3.org/1999/02/22-rdf-syntax-ns#"
   xmlns:svg="http://www.w3.org/2000/svg"
   xmlns="http://www.w3.org/2000/svg"
   xmlns:sodipodi="http://sodipodi.sourceforge.net/DTD/sodipodi-0.dtd"
   xmlns:inkscape="http://www.inkscape.org/namespaces/inkscape"
   id="eacd2d0c-f209-464b-9f5f-328188f630b3"
   data-name="Layer 1"
   width="159.93317"
   height="60.643879"
   viewBox="0 0 159.93316 60.643879"
   version="1.1"
   sodipodi:docname="Hipster_NavLogo.svg"
   inkscape:version="1.0.2 (e86c870879, 2021-01-15)">
  <metadata
     id="metadata13">
    <rdf:RDF>
      <cc:Work
         rdf:about="">
        <dc:format>image/svg+xml</dc:format>
        <dc:type
           rdf:resource="http://purl.org/dc/dcmitype/StillImage" />
        <dc:title />
      </cc:Work>
    </rdf:RDF>
  </metadata>
  <sodipodi:namedview
     pagecolor="#ffffff"
     bordercolor="#666666"
     borderopacity="1"
     objecttolerance="10"
     gridtolerance="10"
     guidetolerance="10"
     inkscape:pageopacity="0"
     inkscape:pageshadow="2"
     inkscape:window-width="2474"
     inkscape:window-height="1301"
     id="namedview11"
     showgrid="false"
     inkscape:zoom="4.5437262"
     inkscape:cx="60.140267"
     inkscape:cy="20.698246"
     inkscape:window-x="816"
     inkscape:window-y="443"
     inkscape:window-maximized="0"
     inkscape:current-layer="eacd2d0c-f209-464b-9f5f-328188f630b3"
     inkscape:document-rotation="0" />
  <defs
     id="defs4">
    <style
       id="style2">
      .a250edb2-d8a8-4517-9f61-fcd71a78e4a3 {
        fill: #fff;
      }

      .a0905c9e-9d7b-48fd-b4d6-2cd8e0bc26ae {
        fill: #e00;
      }
    </style>
  </defs>
  <rect
     id="f5367c26-4304-4608-9b66-58dcca89a5d6"
     data-name="Rectangle 22-2"
     width="159.93317"
     height="60.643879"
     x="0"
     y="0"
     style="stroke-width:0.398118" />
  <path
     id="e90627e1-4bcc-43c3-960e-d6ddd5ba81cb"
     data-name="Path-10"
     class="a250edb2-d8a8-4517-9f61-fcd71a78e4a3"
     d="m 146.59238,26.288246 c 0,3.071 1.756,4.564 4.957,4.564 a 12.2,12.2 0 0 0 2.919,-0.434 v -3.56 a 5.82207,5.82207 0 0 1 -1.886,0.3 c -1.318,0 -1.807,-0.434 -1.807,-1.738 v -5.462 h 3.82 v -3.665 h -3.82 v -4.65 l -4.174,0.951 v 3.7 h -2.772 v 3.664 h 2.762 z m -13.013,0.083 c 0,-0.951 0.906,-1.413 2.274,-1.413 a 10.09235,10.09235 0 0 1 2.48,0.325 v 1.847 a 5.074,5.074 0 0 1 -2.61,0.679 c -1.341,0 -2.143,-0.542 -2.143,-1.439 m 1.277,4.536 a 6.162,6.162 0 0 0 3.771,-1.113 v 0.87 h 4.13 v -9.205 c 0,-3.5 -2.244,-5.424 -5.988,-5.424 a 14.62407,14.62407 0 0 0 -6.384,1.576 l 1.5,3.234 a 10.712,10.712 0 0 1 4.132,-1.142 c 1.719,0 2.608,0.705 2.608,2.146 v 0.705 a 11.59368,11.59368 0 0 0 -3.1,-0.408 c -3.514,0 -5.63,1.55 -5.63,4.321 0,2.526 1.91,4.453 4.957,4.453 m -22.7,-0.243 h 4.442 v -7.456 h 7.437 v 7.444 h 4.454 v -19.015 h -4.437 v 7.309 h -7.437 v -7.309 h -4.442 z m -16.907001,-7.206 a 3.546,3.546 0 0 1 3.4484,-3.641 q 0.0708,-0.0019 0.1416,-0.001 a 4.107,4.107 0 0 1 2.887001,1.116 v 5.024 a 3.907,3.907 0 0 1 -2.887001,1.152 3.562,3.562 0 0 1 -3.59073,-3.53305 q -4.1e-4,-0.053 7.3e-4,-0.10595 m 6.533001,7.2 h 4.132 v -19.983 l -4.17194,0.951 v 5.409 a 6.68186,6.68186 0 0 0 -3.487001,-0.951 7.16,7.16 0 0 0 -7.1026,7.21694 q 5.6e-4,0.072 0.003,0.14406 a 7.5,7.5 0 0 0 2.014,5.232 6.767,6.767 0 0 0 4.959,2.155 5.96411,5.96411 0 0 0 3.666001,-1.248 z m -18.960001,-11.056 a 3.047,3.047 0 0 1 2.865,2.281 h -5.7 a 2.879,2.879 0 0 1 2.831,-2.281 m -7.039,3.874 a 7.346,7.346 0 0 0 7.24679,7.44389 q 0.0941,0.0013 0.1882,1.1e-4 a 7.966,7.966 0 0 0 5.708,-2.175 l -2.765,-2.583 a 3.6,3.6 0 0 1 -2.735,1.087 3.53,3.53 0 0 1 -3.359,-2.281 h 9.735 v -1.092 c 0,-4.564 -2.917,-7.849 -6.894,-7.849 a 6.838,6.838 0 0 0 -5.05,2.143 7.58,7.58 0 0 0 -2.071,5.3 m -7.206,-7.849 a 2.151,2.151 0 1 1 0,4.293 h -4.393 v -4.295 z m -8.835,15.02 h 4.442 v -6.927 h 3.381 l 3.41,6.927 h 4.967 l -3.973,-7.606 a 5.762,5.762 0 0 0 3.408,-5.352 c 0,-3.422 -2.556,-6.057 -6.384,-6.057 h -9.251 z" />
  <path
     id="a4240430-ad8a-419d-8d6c-db643d766acb"
     data-name="Path-11"
     class="a0905c9e-9d7b-48fd-b4d6-2cd8e0bc26ae"
     d="m 35.548379,23.134246 c 3.072,0 7.516,-0.666 7.516,-4.51 a 3.79954,3.79954 0 0 0 -0.076,-0.883 l -1.83,-8.359 c -0.422,-1.839 -0.793,-2.6729995 -3.862,-4.2879995 -2.382,-1.281 -7.57,-3.4 -9.1,-3.4 -1.429,0 -1.844,1.937 -3.548,1.937 -1.64,0 -2.858,-1.446 -4.392,-1.446 -1.473,0 -2.433,1.056 -3.175,3.229 0,0 -2.065,6.1269995 -2.33,7.0149995 a 1.74269,1.74269 0 0 0 -0.054,0.5 c 0,2.381 8.913,10.19 20.855,10.19 m 7.987,-2.939 a 13.47291,13.47291 0 0 1 0.425,2.616 c 0,3.616 -3.865,5.623 -8.945,5.623 -11.485,0.012 -21.546,-7.065 -21.546,-11.743 a 4.97892,4.97892 0 0 1 0.371,-1.893 c -4.1259997,0.215 -9.4709997,0.992 -9.4709997,5.956 0,8.131 18.3139997,18.153 32.8149997,18.153 11.118,0 13.921,-5.29 13.921,-9.466 0,-3.285 -2.7,-7.015 -7.57,-9.242" />
  <path
     id="f72331e7-d283-4f6d-9965-aa918d2f287b"
     data-name="Path-12"
     d="m 43.535379,20.439246 a 13.47292,13.47292 0 0 1 0.425,2.616 c 0,3.616 -3.865,5.623 -8.945,5.623 -11.481,0.008 -21.538,-7.069 -21.538,-11.747 a 4.9791,4.9791 0 0 1 0.371,-1.893 l 0.9,-2.34 a 1.74254,1.74254 0 0 0 -0.054,0.491 c 0,2.381 8.913,10.19 20.855,10.19 3.072,0 7.516,-0.666 7.516,-4.51 a 3.8,3.8 0 0 0 -0.076,-0.883 z" />
  <text
     xml:space="preserve"
     style="font-style:normal;font-weight:normal;font-size:40px;line-height:125%;font-family:'Bitstream Vera Sans';letter-spacing:0px;word-spacing:0px;fill:#ffffff;fill-opacity:1;stroke:none;stroke-width:1px;stroke-linecap:butt;stroke-linejoin:miter;stroke-opacity:1"
     x="57.655827"
     y="54.623173"
     id="text836"><tspan
       sodipodi:role="line"
       id="tspan834"
       x="57.655827"
       y="54.623173"
       style="font-style:normal;font-variant:normal;font-weight:normal;font-stretch:normal;font-size:24px;font-family:'Bitstream Vera Sans';-inkscape-font-specification:'Bitstream Vera Sans, Normal';font-variant-ligatures:normal;font-variant-caps:normal;font-variant-numeric:normal;font-variant-east-asian:normal">Gallery</tspan></text>
</svg>
