<svg xmlns="http://www.w3.org/2000/svg" viewBox="0 0 721.15 721.15"><defs><style>.cls-1{fill:#db3927;}.cls-2{fill:#cb3628;}.cls-3{fill:#fff;}.cls-4{fill:#e3e3e2;}</style></defs><title>Product_Icon-Red_HatAdvanced_Cluster_Management_for_Kubernetes-RGB</title><g id="Layer_1" data-name="Layer 1"><circle class="cls-1" cx="360.57" cy="360.57" r="358.58"/><path class="cls-2" d="M614.13,107,107,614.13c140,140,367.07,140,507.11,0S754.16,247.06,614.13,107Z"/><rect class="cls-3" x="330.87" y="280.6" width="203.17" height="20" transform="translate(-78.9 390.52) rotate(-44.96)"/><rect class="cls-3" x="306.63" y="167.83" width="20" height="204.47" transform="translate(-85.33 162.27) rotate(-25.45)"/><rect class="cls-3" x="162.98" y="364.1" width="198.28" height="20" transform="translate(-42.39 33.61) rotate(-6.79)"/><rect class="cls-3" x="245.1" y="451.54" width="200.62" height="20" transform="translate(-163.01 733.26) rotate(-81.31)"/><rect class="cls-3" x="443.85" y="303.76" width="20" height="207.04" transform="translate(-109.97 639.58) rotate(-64.3)"/><circle class="cls-3" cx="504.34" cy="218.83" r="44.08"/><circle class="cls-3" cx="272.7" cy="177.75" r="44.08"/><circle class="cls-3" cx="547.12" cy="452.17" r="44.08"/><circle class="cls-3" cx="163.68" cy="385.82" r="44.08"/><circle class="cls-3" cx="330.26" cy="560.7" r="44.08"/><path class="cls-4" d="M444.94,279.92,276.19,448.67A119.32,119.32,0,0,0,444.94,279.92Z"/><path class="cls-3" d="M375.68,245.76a119.33,119.33,0,0,0-99.49,202.91L444.94,279.92A118.89,118.89,0,0,0,375.68,245.76Z"/></g></svg>