<?xml version="1.0" encoding="UTF-8" standalone="no"?>
<svg
   xmlns:dc="http://purl.org/dc/elements/1.1/"
   xmlns:cc="http://creativecommons.org/ns#"
   xmlns:rdf="http://www.w3.org/1999/02/22-rdf-syntax-ns#"
   xmlns:svg="http://www.w3.org/2000/svg"
   xmlns="http://www.w3.org/2000/svg"
   xmlns:sodipodi="http://sodipodi.sourceforge.net/DTD/sodipodi-0.dtd"
   xmlns:inkscape="http://www.inkscape.org/namespaces/inkscape"
   width="100%"
   height="100%"
   viewBox="0 0 500 500"
   version="1.1"
   xml:space="preserve"
   style="fill-rule:evenodd;clip-rule:evenodd;stroke-linejoin:round;stroke-miterlimit:2;"
   id="svg18"
   sodipodi:docname="cryostat.svg"
   inkscape:version="1.0.2 (e86c870879, 2021-01-15)"><metadata
     id="metadata24"><rdf:RDF><cc:Work
         rdf:about=""><dc:format>image/svg+xml</dc:format><dc:type
           rdf:resource="http://purl.org/dc/dcmitype/StillImage" /></cc:Work></rdf:RDF></metadata><defs
     id="defs22" /><sodipodi:namedview
     pagecolor="#ffffff"
     bordercolor="#666666"
     borderopacity="1"
     objecttolerance="10"
     gridtolerance="10"
     guidetolerance="10"
     inkscape:pageopacity="0"
     inkscape:pageshadow="2"
     inkscape:window-width="1908"
     inkscape:window-height="2096"
     id="namedview20"
     showgrid="false"
     inkscape:zoom="1.4255273"
     inkscape:cx="335.61706"
     inkscape:cy="455.80265"
     inkscape:window-x="1920"
     inkscape:window-y="0"
     inkscape:window-maximized="0"
     inkscape:current-layer="svg18" /><g
     id="g16"
     transform="matrix(0.67230113,0,0,0.67230113,80.779696,73.775253)"><path
       d="m 260.464,486.902 c 84.244,0 156.319,-40.173 196.569,-103.798 l -55.227,-34.646 c -29.017,47.755 -80.499,77.718 -141.342,77.718 -93.605,0 -161.936,-73.972 -161.936,-176.035 0,-102.063 68.331,-176.035 161.936,-176.035 60.843,0 112.325,29.963 141.342,77.717 l 55.227,-34.645 C 416.783,53.553 344.708,13.381 260.464,13.381 131.29,13.381 31.25,115.305 31.25,250.141 c 0,134.835 100.04,236.761 229.214,236.761 z"
       style="fill:#0499c5;fill-rule:nonzero"
       id="path2" /><path
       d="m 76.504,234.516 c -4.312,0 -7.812,3.501 -7.812,7.813 v 15.625 c 0,4.312 3.5,7.812 7.812,7.812 h 134.142 c 4.312,0 7.813,-3.5 7.813,-7.812 v -15.625 c 0,-4.312 -3.501,-7.813 -7.813,-7.813 z"
       style="fill:#0499c5"
       id="path4" /><path
       d="m 152.671,397.69 c -2.156,3.735 -0.875,8.517 2.859,10.673 l 13.532,7.812 c 3.734,2.156 8.516,0.875 10.672,-2.86 l 67.071,-116.17 c 2.156,-3.734 0.875,-8.516 -2.86,-10.672 l -13.531,-7.812 c -3.734,-2.156 -8.516,-0.875 -10.672,2.859 z"
       style="fill:#0499c5"
       id="path6" /><path
       d="m 332.067,413.315 c 2.156,3.735 6.938,5.016 10.672,2.86 l 13.532,-7.812 c 3.734,-2.156 5.015,-6.938 2.859,-10.673 L 292.059,281.52 c -2.156,-3.734 -6.938,-5.015 -10.672,-2.859 l -13.531,7.812 c -3.735,2.156 -5.016,6.938 -2.86,10.672 z"
       style="fill:#0499c5"
       id="path8" /><path
       d="m 435.297,265.766 c 4.312,0 7.812,-3.5 7.812,-7.812 v -15.625 c 0,-4.312 -3.5,-7.813 -7.812,-7.813 H 301.155 c -4.312,0 -7.813,3.501 -7.813,7.813 v 15.625 c 0,4.312 3.501,7.812 7.813,7.812 z"
       style="fill:#0499c5"
       id="path10" /><path
       d="m 359.13,102.592 c 2.156,-3.734 0.875,-8.516 -2.859,-10.672 l -13.532,-7.813 c -3.734,-2.156 -8.516,-0.874 -10.672,2.86 l -67.071,116.17 c -2.156,3.735 -0.875,8.517 2.86,10.672 l 13.531,7.813 c 3.734,2.156 8.516,0.875 10.672,-2.86 z"
       style="fill:#0499c5"
       id="path12" /><path
       d="m 179.734,86.967 c -2.156,-3.734 -6.938,-5.016 -10.672,-2.86 L 155.53,91.92 c -3.734,2.156 -5.015,6.938 -2.859,10.672 l 67.071,116.17 c 2.156,3.735 6.938,5.016 10.672,2.86 l 13.531,-7.813 c 3.735,-2.155 5.016,-6.937 2.86,-10.672 z"
       style="fill:#0499c5"
       id="path14" /></g></svg>
