<?xml version="1.0" encoding="UTF-8" standalone="no"?>
<svg
   xmlns:dc="http://purl.org/dc/elements/1.1/"
   xmlns:cc="http://creativecommons.org/ns#"
   xmlns:rdf="http://www.w3.org/1999/02/22-rdf-syntax-ns#"
   xmlns:svg="http://www.w3.org/2000/svg"
   xmlns="http://www.w3.org/2000/svg"
   xmlns:sodipodi="http://sodipodi.sourceforge.net/DTD/sodipodi-0.dtd"
   xmlns:inkscape="http://www.inkscape.org/namespaces/inkscape"
   viewBox="0 0 100 100"
   version="1.1"
   id="svg21"
   sodipodi:docname="data-grid.svg"
   inkscape:version="1.0.2 (e86c870879, 2021-01-15)">
  <metadata
     id="metadata25">
    <rdf:RDF>
      <cc:Work
         rdf:about="">
        <dc:format>image/svg+xml</dc:format>
        <dc:type
           rdf:resource="http://purl.org/dc/dcmitype/StillImage" />
      </cc:Work>
    </rdf:RDF>
  </metadata>
  <sodipodi:namedview
     pagecolor="#ffffff"
     bordercolor="#666666"
     borderopacity="1"
     objecttolerance="10"
     gridtolerance="10"
     guidetolerance="10"
     inkscape:pageopacity="0"
     inkscape:pageshadow="2"
     inkscape:window-width="1908"
     inkscape:window-height="2096"
     id="namedview23"
     showgrid="false"
     inkscape:zoom="7.1276364"
     inkscape:cx="76.799038"
     inkscape:cy="28.81498"
     inkscape:window-x="1920"
     inkscape:window-y="0"
     inkscape:window-maximized="0"
     inkscape:current-layer="svg21" />
  <defs
     id="defs4">
    <style
       id="style2">.cls-1{fill:#d71e00;}.cls-2{fill:#c21a00;}.cls-3{fill:#eaeaea;}.cls-4{fill:#fff;}.cls-5{fill:#b7b7b7;}</style>
  </defs>
  <title
     id="title6">producticons_1017_RGB_DataGrid final color</title>
  <g
     id="Layer_1"
     data-name="Layer 1"
     transform="matrix(0.58776669,0,0,0.58776669,20.865983,18.708726)">
    <circle
       class="cls-1"
       cx="50"
       cy="50"
       r="50"
       transform="rotate(-45,50.000339,49.999181)"
       id="circle8" />
    <path
       class="cls-2"
       d="M 85.36,14.64 A 50.006592,50.006592 0 0 1 14.64,85.36 Z"
       id="path10" />
    <path
       class="cls-3"
       d="M 74.53,56.75 C 54.26,56 53.83,76.51 32.8,74.38 22,73.29 14,61.9 16.17,54.58 l 6,-18.58 c -0.94,8.6 12.34,22.56 23.11,23.65 12.52,1.27 15.57,-4.28 29.2,-2.9"
       id="path12" />
    <path
       class="cls-4"
       d="M 80.47,39.21 C 69.47,38.1 61.79,49.34 54,59.42 60.35,58.36 64.67,55.76 74.5,56.75 h 0.06 c 4.76,0.48 4.95,3.57 4.73,5 l 6.46,-18 C 86,42.29 85,39.67 80.47,39.21 Z"
       id="path14" />
    <path
       class="cls-5"
       d="m 74.59,56.76 h -0.08 a 22.39,22.39 0 0 0 -14.36,4.16 17.61,17.61 0 0 0 10.3,5 c 3.52,0.36 7.79,-1.68 8.87,-4.22 0.22,-1.38 0.03,-4.46 -4.73,-4.94 z"
       id="path16" />
    <path
       class="cls-5"
       d="M 68.5,43.06 C 60.68,36.85 57.07,25 43.2,23.61 28.85,22.16 23.79,31.5 22.28,35.67 L 22.21,36 c -0.26,2.4 0.59,5.23 2.18,8.07 3.21,-1.71 7.57,-2.57 13.6,-2 8.2,0.83 12.83,8.19 18.14,14.53 C 60.06,51.53 64,46.43 68.5,43.06 Z"
       id="path18" />
  </g>
</svg>
