<?xml version="1.0" encoding="UTF-8" standalone="no"?>
<svg
   xmlns:dc="http://purl.org/dc/elements/1.1/"
   xmlns:cc="http://creativecommons.org/ns#"
   xmlns:rdf="http://www.w3.org/1999/02/22-rdf-syntax-ns#"
   xmlns:svg="http://www.w3.org/2000/svg"
   xmlns="http://www.w3.org/2000/svg"
   xmlns:sodipodi="http://sodipodi.sourceforge.net/DTD/sodipodi-0.dtd"
   xmlns:inkscape="http://www.inkscape.org/namespaces/inkscape"
   viewBox="0 0 100 100"
   version="1.1"
   id="svg37"
   sodipodi:docname="jboss-eap.svg"
   inkscape:version="1.0.2 (e86c870879, 2021-01-15)">
  <metadata
     id="metadata41">
    <rdf:RDF>
      <cc:Work
         rdf:about="">
        <dc:format>image/svg+xml</dc:format>
        <dc:type
           rdf:resource="http://purl.org/dc/dcmitype/StillImage" />
      </cc:Work>
    </rdf:RDF>
  </metadata>
  <sodipodi:namedview
     pagecolor="#ffffff"
     bordercolor="#666666"
     borderopacity="1"
     objecttolerance="10"
     gridtolerance="10"
     guidetolerance="10"
     inkscape:pageopacity="0"
     inkscape:pageshadow="2"
     inkscape:window-width="1908"
     inkscape:window-height="2096"
     id="namedview39"
     showgrid="false"
     inkscape:zoom="10.08"
     inkscape:cx="47.591769"
     inkscape:cy="41.517857"
     inkscape:window-x="1920"
     inkscape:window-y="0"
     inkscape:window-maximized="0"
     inkscape:current-layer="svg37" />
  <defs
     id="defs4">
    <style
       id="style2">.cls-1{fill:#d71e00;}.cls-2{fill:#c21a00;}.cls-3{fill:#cdcdcd;}.cls-4{fill:#b7b7b7;}.cls-5{fill:#eaeaea;}.cls-6{fill:#fff;}</style>
  </defs>
  <title
     id="title6">Logo</title>
  <g
     id="Layer_1"
     data-name="Layer 1"
     transform="matrix(0.58465005,0,0,0.58465005,21.749094,20.30725)">
    <circle
       class="cls-1"
       cx="50"
       cy="50"
       r="50"
       transform="rotate(-45,50.000339,49.999181)"
       id="circle8" />
    <path
       class="cls-2"
       d="M 85.36,14.64 A 50.006592,50.006592 0 0 1 14.64,85.36 Z"
       id="path10" />
    <path
       class="cls-3"
       d="m 60.17,43.13 a 3.41,3.41 0 0 1 0.07,0.68 3.4,3.4 0 0 0 -0.07,-0.68 z"
       id="path12" />
    <path
       class="cls-3"
       d="M 59.21,41.38 A 3.48,3.48 0 0 1 60,42.47 3.48,3.48 0 0 0 59.21,41.38 Z"
       id="path14" />
    <polygon
       class="cls-3"
       points="59.04,41.21 59.13,41.29 "
       id="polygon16" />
    <path
       class="cls-3"
       d="M 59.12,46.34 33.54,69.73 59.12,46.33 a 3.45,3.45 0 0 0 0.91,-1.4 3.45,3.45 0 0 1 -0.91,1.41 z"
       id="path18" />
    <path
       class="cls-3"
       d="M 28.54,71.48 58.87,41 h -0.08 a 3.7,3.7 0 0 0 -5.21,0.2 L 29,68.26 c -1,1 -1.19,2.52 -0.35,3.31 a 1.75,1.75 0 0 0 0.74,0.41 1.75,1.75 0 0 1 -0.74,-0.41 z"
       id="path20" />
    <path
       class="cls-4"
       d="M 28.62,71.57 A 2.52,2.52 0 0 0 32,71.11 L 59.12,46.34 a 3.42,3.42 0 0 0 0,-5 L 58.87,41 28.54,71.48 Z"
       id="path22" />
    <path
       class="cls-5"
       d="m 34.46,34.71 -10.6,-8.43 a 2.6,2.6 0 0 0 -4.2,2.33 l 0.19,1.64 a 18.21,18.21 0 0 0 11.69,15 l 13.69,5.14 2.31,-2.55 -11.38,-11.11 a 16.45,16.45 0 0 1 -1.7,-2.02 z"
       id="path24" />
    <path
       class="cls-5"
       d="M 74.69,75.41 65.88,65.12 A 16.45,16.45 0 0 1 63.8,63.49 l -11.47,-10.94 -2.52,2.3 5.67,13.58 a 18.21,18.21 0 0 0 15.39,11.13 l 1.64,0.13 a 2.6,2.6 0 0 0 2.18,-4.28 z"
       id="path26" />
    <path
       class="cls-5"
       d="m 58.64,46.78 a 3,3 0 0 0 3.85,-2.17 3.28,3.28 0 0 0 -3,-4.15 v 0 l -0.59,0.59 v 0 l 0.26,0.25 a 3.42,3.42 0 0 1 0,5 z"
       id="path28" />
    <path
       class="cls-6"
       d="m 32.77,17.18 -0.5,1.53 a 17.6,17.6 0 0 0 3.89,18 l 11.37,11.11 3.61,-4 -13.7,-27 a 2.54,2.54 0 0 0 -4.67,0.36 z"
       id="path30" />
    <path
       class="cls-6"
       d="m 83.65,61.48 -27.3,-12.61 -4,3.68 11.45,10.94 a 17.6,17.6 0 0 0 18.15,3.23 l 1.51,-0.55 a 2.54,2.54 0 0 0 0.19,-4.69 z"
       id="path32" />
    <path
       class="cls-6"
       d="m 53.58,41.17 a 3.7,3.7 0 0 1 5.21,-0.2 l 0.08,0.08 v 0 l 0.59,-0.59 v 0 a 3.41,3.41 0 0 0 -4.29,-2.93 c -2,0.38 -3.07,2.68 -2,4.11 z"
       id="path34" />
  </g>
</svg>
