<?xml version="1.0" encoding="UTF-8" standalone="no"?>
<svg
   xmlns:dc="http://purl.org/dc/elements/1.1/"
   xmlns:cc="http://creativecommons.org/ns#"
   xmlns:rdf="http://www.w3.org/1999/02/22-rdf-syntax-ns#"
   xmlns:svg="http://www.w3.org/2000/svg"
   xmlns="http://www.w3.org/2000/svg"
   xmlns:sodipodi="http://sodipodi.sourceforge.net/DTD/sodipodi-0.dtd"
   xmlns:inkscape="http://www.inkscape.org/namespaces/inkscape"
   id="Layer_1"
   data-name="Layer 1"
   viewBox="0 0 721.15 721.15"
   version="1.1"
   sodipodi:docname="openshift-virtualization.svg"
   inkscape:version="1.0.2 (e86c870879, 2021-01-15)">
  <metadata
     id="metadata31">
    <rdf:RDF>
      <cc:Work
         rdf:about="">
        <dc:format>image/svg+xml</dc:format>
        <dc:type
           rdf:resource="http://purl.org/dc/dcmitype/StillImage" />
      </cc:Work>
    </rdf:RDF>
  </metadata>
  <sodipodi:namedview
     pagecolor="#ffffff"
     bordercolor="#666666"
     borderopacity="1"
     objecttolerance="10"
     gridtolerance="10"
     guidetolerance="10"
     inkscape:pageopacity="0"
     inkscape:pageshadow="2"
     inkscape:window-width="1908"
     inkscape:window-height="2096"
     id="namedview29"
     showgrid="false"
     inkscape:zoom="1.3977674"
     inkscape:cx="360.57501"
     inkscape:cy="360.57501"
     inkscape:window-x="1920"
     inkscape:window-y="0"
     inkscape:window-maximized="0"
     inkscape:current-layer="Layer_1" />
  <defs
     id="defs4">
    <style
       id="style2">.cls-1{fill:#dc3926;}.cls-2{fill:#cb3528;}.cls-3{fill:#fff;}</style>
  </defs>
  <title
     id="title6">Product_Icon-Red_Hat-Container_Native_Virtualization-RGB</title>
  <circle
     class="cls-1"
     cx="367.1333"
     cy="348.33655"
     r="216.89609"
     id="circle8"
     style="stroke-width:0.604875" />
  <path
     class="cls-2"
     d="M 520.50541,194.95837 213.75513,501.70865 c 84.6825,84.68251 222.03148,84.68251 306.73818,0 84.7067,-84.68251 84.71275,-222.03148 0.0121,-306.75028 z"
     id="path10"
     style="stroke-width:0.604875" />
  <polygon
     class="cls-3"
     points="368.01,552.39 523.21,470.44 368.01,380.89 "
     id="polygon12"
     transform="matrix(0.60487505,0,0,0.60487505,149.0335,130.23674)" />
  <polygon
     class="cls-3"
     points="368.01,168.76 368.01,339.97 519.86,252.35 "
     id="polygon14"
     transform="matrix(0.60487505,0,0,0.60487505,149.0335,130.23674)" />
  <polygon
     class="cls-3"
     points="379.67,360.75 530.25,447.63 530.25,273.87 "
     id="polygon16"
     transform="matrix(0.60487505,0,0,0.60487505,149.0335,130.23674)" />
  <polygon
     class="cls-3"
     points="345.55,261.08 345.55,168.76 271.76,211.36 271.76,235.61 324.55,205.13 324.55,261.08 "
     id="polygon18"
     transform="matrix(0.60487505,0,0,0.60487505,149.0335,130.23674)" />
  <polygon
     class="cls-3"
     points="250.31,293.35 210.97,270.71 250.31,248 250.31,223.75 179.63,264.55 179.43,264.67 179.43,353.7 200.43,353.7 200.43,288.87 250.31,317.58 "
     id="polygon20"
     transform="matrix(0.60487505,0,0,0.60487505,149.0335,130.23674)" />
  <polygon
     class="cls-3"
     points="271.76,329.93 324.55,360.32 324.55,427.57 345.55,427.57 345.55,360.29 345.55,282.54 324.55,282.54 324.55,336.09 271.76,305.7 "
     id="polygon22"
     transform="matrix(0.60487505,0,0,0.60487505,149.0335,130.23674)" />
  <polygon
     class="cls-3"
     points="271.76,509.79 345.55,552.39 345.55,449.02 324.55,449.02 324.55,516.02 271.76,485.54 "
     id="polygon24"
     transform="matrix(0.60487505,0,0,0.60487505,149.0335,130.23674)" />
  <polygon
     class="cls-3"
     points="179.43,375.16 179.43,456.48 250.31,497.4 250.31,473.15 200.43,444.36 200.43,375.16 "
     id="polygon26"
     transform="matrix(0.60487505,0,0,0.60487505,149.0335,130.23674)" />
</svg>
