<?xml version="1.0" encoding="UTF-8" standalone="no"?>
<svg
   xmlns:dc="http://purl.org/dc/elements/1.1/"
   xmlns:cc="http://creativecommons.org/ns#"
   xmlns:rdf="http://www.w3.org/1999/02/22-rdf-syntax-ns#"
   xmlns:svg="http://www.w3.org/2000/svg"
   xmlns="http://www.w3.org/2000/svg"
   xmlns:sodipodi="http://sodipodi.sourceforge.net/DTD/sodipodi-0.dtd"
   xmlns:inkscape="http://www.inkscape.org/namespaces/inkscape"
   id="Layer_1"
   data-name="Layer 1"
   viewBox="0 0 1024 1024"
   version="1.1"
   sodipodi:docname="skupper.svg"
   inkscape:version="1.0.2 (e86c870879, 2021-01-15)">
  <metadata
     id="metadata29">
    <rdf:RDF>
      <cc:Work
         rdf:about="">
        <dc:format>image/svg+xml</dc:format>
        <dc:type
           rdf:resource="http://purl.org/dc/dcmitype/StillImage" />
      </cc:Work>
    </rdf:RDF>
  </metadata>
  <sodipodi:namedview
     pagecolor="#ffffff"
     bordercolor="#666666"
     borderopacity="1"
     objecttolerance="10"
     gridtolerance="10"
     guidetolerance="10"
     inkscape:pageopacity="0"
     inkscape:pageshadow="2"
     inkscape:window-width="1908"
     inkscape:window-height="2096"
     id="namedview27"
     showgrid="false"
     inkscape:zoom="0.984375"
     inkscape:cx="512"
     inkscape:cy="512"
     inkscape:window-x="1920"
     inkscape:window-y="0"
     inkscape:window-maximized="0"
     inkscape:current-layer="Layer_1" />
  <defs
     id="defs4">
    <style
       id="style2">.cls-1{fill:#353535;}.cls-2{fill:#38586c;}.cls-3{fill:#fff;}.cls-4{fill:#d5c5b7;}</style>
  </defs>
  <title
     id="title6">skupper_icon_rgb_default</title>
  <path
     class="cls-1"
     d="m 832.16003,437.70956 -8.7629,-0.86985 c -1.12758,-0.16753 -14.56188,-2.37758 -34.37505,-14.05285 -12.11987,-7.13919 -24.22684,-16.3789 -35.98588,-27.45494 -14.81961,-13.94332 -29.09154,-30.85701 -42.4614,-50.25781 A 388.66037,388.66037 0 0 0 591.1223,232.8059 C 538.23562,201.14993 498.1067,194.48755 487.06931,193.19888 a 213.17686,213.17686 0 0 0 -24.38148,-1.50773 146.40486,146.40486 0 0 0 -23.51163,1.79124 c -21.47555,3.47294 -39.62635,12.00388 -53.96915,25.39952 -13.18301,12.30028 -22.95751,28.55675 -29.05932,48.32482 -6.25646,20.28353 -8.75646,44.88409 -7.43558,73.11866 1.28866,27.66757 -1.44975,59.15602 -7.93171,91.05684 A 469.91693,469.91693 0 0 1 311.3023,524.72 c -13.27966,30.32865 -28.81448,56.59802 -46.16631,78.08001 -17.66755,21.86859 -36.23072,37.5065 -55.18049,46.47558 l -8.06702,3.82088 -13.35698,6.32089 5.03867,13.88533 3.04768,8.3763 c 0.85696,2.36469 8.93043,23.60828 28.05417,41.68176 5.41882,5.15465 12.84795,11.68816 22.26807,17.02967 11.22424,6.37243 22.93818,9.60053 34.79387,9.60053 a 67.873812,67.873812 0 0 0 10.05156,-0.76031 c 37.9382,-5.71522 81.35965,-19.75519 112.27465,-31.01809 a 92.326167,92.326167 0 0 0 9.39434,12.04899 c 23.1637,25.19978 60.38025,37.97686 110.59939,37.97686 25.12891,0 54.12379,-3.22166 86.07616,-9.60698 44.00135,-8.7629 80.03878,-22.86086 107.13933,-41.96527 23.357,-16.44332 40.18048,-36.51422 50.01296,-59.66503 a 122.56461,122.56461 0 0 0 9.66497,-51.70111 37.880211,37.880211 0 0 0 17.62245,4.51032 c 8.93042,0 14.81961,-3.46006 16.97167,-4.94846 l 4.36212,-3.04769 a 5.9020706,5.9020706 0 0 0 2.4549,-3.94975 l 0.80541,-5.26418 c 0.21263,-1.37887 1.73325,-12.43559 -0.84407,-27.93174 0.64433,-0.67655 1.28866,-1.3531 1.93299,-2.06186 9.42656,-10.68945 16.10827,-25.01937 20.50905,-43.8145 3.62114,-15.54126 5.55414,-33.73716 5.91496,-55.63797 l 0.1482,-9.02063 0.24484,-14.94847 z"
     id="path8"
     style="stroke-width:0.644331" />
  <path
     class="cls-2"
     d="m 821.57367,452.97376 c -0.60567,-0.058 -61.21143,-7.04254 -124.35585,-98.70505 A 372.13328,372.13328 0 0 0 582.78466,246.72345 c -50.10961,-29.98072 -87.37126,-36.20495 -97.59679,-37.37119 -16.54642,-1.93299 -30.75392,-1.86856 -43.44723,0.18041 -18.21524,2.95104 -33.50521,10.09667 -45.45754,21.26292 -11.0825,10.3093 -19.36859,24.2204 -24.61989,41.23718 -5.70232,18.47941 -7.97037,41.23717 -6.73325,67.57097 1.35309,28.99489 -1.49485,61.85576 -8.24744,95.05169 a 486.20561,486.20561 0 0 1 -30.50906,96.61741 c -13.85956,31.64953 -30.14824,59.16246 -48.40858,81.76558 -19.21395,23.75004 -39.69078,40.90213 -60.88282,50.90858 l -8.06058,3.82089 3.04124,8.3763 a 101.70118,101.70118 0 0 0 23.94978,35.43819 c 11.43043,10.80543 29.27839,25.2771 53.56322,21.6173 34.67144,-5.22552 75.38671,-18.04126 106.95892,-29.42014 a 106.25016,106.25016 0 0 1 -7.73197,-29.4717 c -4.74227,3.86599 -9.29125,7.08764 -13.25388,9.94847 -3.04125,2.1714 -6.19202,4.42011 -7.47424,5.6379 a 23.653385,23.653385 0 0 1 -16.28224,6.62372 c -10.60569,0 -19.90983,-6.97166 -24.8905,-18.6856 -4.07217,-9.55542 -4.90336,-21.33379 -2.35181,-33.18303 3.02835,-14.07219 10.82476,-27.95752 22.55158,-40.1547 19.23327,-20.02581 26.90726,-37.88666 32.51293,-50.90214 3.65336,-8.51161 6.81058,-15.86343 12.33894,-21.33379 6.10181,-6.05027 14.71652,-8.98842 26.34024,-8.98842 a 108.40222,108.40222 0 0 1 19.90338,2.19717 c 15.52838,-16.15338 32.66114,-19.85828 65.2385,-26.90726 11.41755,-2.47423 25.63793,-5.54769 43.00909,-9.81316 52.39054,-12.8544 85.1161,-15.55414 103.33778,-15.55414 5.04511,0 9.61341,0.19974 13.62115,0.59922 3.11212,-1.77835 8.44074,-4.90335 17.39694,-10.30929 9.59408,-5.79898 18.04126,-9.66496 27.90596,-9.66496 15.76678,0 27.76422,9.31702 51.6689,27.88019 l 0.058,0.0451 c 3.91109,3.0348 8.33765,6.47552 13.17657,10.18687 22.23586,17.04255 33.74361,36.79129 39.69078,53.15729 11.99744,-18.73714 16.70106,-48.06708 17.26162,-82.13929 l 0.1482,-9.02064 z"
     id="path10"
     style="stroke-width:0.644331" />
  <path
     class="cls-3"
     d="m 524.41473,253.86264 a 60.270708,60.270708 0 0 1 19.2075,1.66237 57.171476,57.171476 0 0 1 16.366,6.95233 48.737185,48.737185 0 0 1 12.3776,10.95362 39.536141,39.536141 0 0 1 7.20362,14.11085 34.864742,34.864742 0 0 1 1.23067,9.71007 33.466544,33.466544 0 0 1 -1.4884,9.33635 35.315774,35.315774 0 0 1 -4.02707,8.67269 39.561914,39.561914 0 0 1 -6.44331,7.73197 7.8608363,7.8608363 0 0 0 -1.49485,1.933 9.0206319,9.0206319 0 0 0 -0.9085,2.32603 10.509036,10.509036 0 0 0 -0.28351,2.57732 11.385326,11.385326 0 0 0 0.38016,2.72552 l 2.5,9.40079 a 11.771925,11.771925 0 0 1 0.34794,4.12372 10.663676,10.663676 0 0 1 -1.04382,3.72423 9.3170241,9.3170241 0 0 1 -2.2616,2.93171 8.292538,8.292538 0 0 1 -3.29897,1.71392 l -23.23457,5.9665 a 9.4909934,9.4909934 0 0 1 -4.07862,0.12887 10.45749,10.45749 0 0 1 -3.80155,-1.53351 11.597955,11.597955 0 0 1 -3.07346,-2.94459 12.119863,12.119863 0 0 1 -1.89433,-4.05929 l -2.57732,-10.13532 a 11.99744,11.99744 0 0 0 -1.10181,-2.78351 11.701048,11.701048 0 0 0 -1.73969,-2.37114 11.501306,11.501306 0 0 0 -2.25516,-1.84923 10.895635,10.895635 0 0 0 -2.68042,-1.19845 57.912457,57.912457 0 0 1 -11.68172,-4.83249 51.488478,51.488478 0 0 1 -10.07089,-7.19717 44.0529,44.0529 0 0 1 -7.73197,-9.25904 38.363459,38.363459 0 0 1 -4.61985,-10.88919 34.110875,34.110875 0 0 1 0.23196,-17.62245 36.726858,36.726858 0 0 1 8.51161,-14.89693 45.625067,45.625067 0 0 1 14.67141,-10.41238 55.32869,55.32869 0 0 1 18.76292,-4.69717 z"
     id="path12"
     style="stroke-width:0.644331" />
  <path
     class="cls-3"
     d="m 604.99474,329.1978 6.52708,8.87244 a 9.3105808,9.3105808 0 0 1 1.7719,5.48969 8.0734655,8.0734655 0 0 1 -0.45747,2.71264 6.3208856,6.3208856 0 0 1 -1.36598,2.25515 l -19.32993,20.18689 a 9.4845501,9.4845501 0 0 0 -2.40335,4.73583 11.965224,11.965224 0 0 0 0.21263,5.36083 11.29512,11.29512 0 0 0 2.48712,4.6714 8.376301,8.376301 0 0 0 4.38789,2.61599 l 25.06447,5.5799 a 7.248722,7.248722 0 0 1 2.89949,1.41109 9.5103233,9.5103233 0 0 1 2.23583,2.57732 11.597955,11.597955 0 0 1 1.35953,3.38274 12.384039,12.384039 0 0 1 0.27707,3.86598 11.365996,11.365996 0 0 1 -0.54124,2.68042 9.8904785,9.8904785 0 0 1 -1.08892,2.27449 8.5180538,8.5180538 0 0 1 -1.53995,1.76546 6.8878968,6.8878968 0 0 1 -1.90078,1.15335 6.05671,6.05671 0 0 1 -0.8183,0.26418 6.4433085,6.4433085 0 0 1 -0.85696,0.1482 5.7538745,5.7538745 0 0 1 -0.88273,0 6.224236,6.224236 0 0 1 -0.90851,-0.1031 l -53.47946,-10.24486 a 8.4665073,8.4665073 0 0 0 -1.0567,-0.13531 8.1507852,8.1507852 0 0 0 -1.05026,0 7.9768159,7.9768159 0 0 0 -1.04382,0.14176 8.2152183,8.2152183 0 0 0 -1.01804,0.27706 6.9716598,6.9716598 0 0 0 -0.99227,0.40593 8.1765585,8.1765585 0 0 0 -0.95361,0.53479 9.7487257,9.7487257 0 0 0 -0.90206,0.64433 9.5296532,9.5296532 0 0 0 -0.83763,0.77964 l -51.01812,53.30549 a 10.586356,10.586356 0 0 1 -1.7268,1.46908 10.856975,10.856975 0 0 1 -0.93428,0.56057 9.5232099,9.5232099 0 0 1 -3.53094,1.08247 8.7049098,8.7049098 0 0 1 -2.57732,-0.14175 7.9832592,7.9832592 0 0 1 -4.42655,-2.61598 l -1.52062,-1.75258 a 11.230687,11.230687 0 0 1 -2.26161,-4.17527 13.06703,13.06703 0 0 1 -0.47036,-4.78093 14.291258,14.291258 0 0 1 4.26547,-8.90466 l 26.85571,-26.34668 a 12.11342,12.11342 0 0 0 3.28609,-5.68945 12.538678,12.538678 0 0 0 0,-6.14047 11.533522,11.533522 0 0 0 -2.87372,-5.22552 10.206201,10.206201 0 0 0 -5.4317,-2.91238 l -37.08125,-7.08764 a 9.2848075,9.2848075 0 0 1 -3.47938,-1.44974 9.4265603,9.4265603 0 0 1 -3.93042,-6.02449 9.2332611,9.2332611 0 0 1 0.058,-3.80156 l 1.01804,-4.63273 a 9.5167666,9.5167666 0 0 1 0.97294,-2.57733 9.3556839,9.3556839 0 0 1 1.60439,-2.10052 9.4587768,9.4587768 0 0 1 4.51031,-2.5 c 0.33505,-0.0773 0.64433,-0.13531 1.01804,-0.18041 a 9.1301681,9.1301681 0 0 1 1.03093,-0.0644 8.2474349,8.2474349 0 0 1 1.05026,0.0515 7.6804237,7.6804237 0 0 1 1.05671,0.17397 l 67.42922,15.01291 a 8.981972,8.981972 0 0 0 1.08248,0.16752 7.5064544,7.5064544 0 0 0 1.07603,0 8.2538782,8.2538782 0 0 0 1.0567,-0.0966 9.5167666,9.5167666 0 0 0 1.03093,-0.23195 7.9510427,7.9510427 0 0 0 0.99227,-0.36083 8.1443419,8.1443419 0 0 0 0.94717,-0.4768 8.3118679,8.3118679 0 0 0 0.88917,-0.60568 8.6984664,8.6984664 0 0 0 0.83119,-0.7152 z"
     id="path14"
     style="stroke-width:0.644331" />
  <path
     class="cls-4"
     d="m 801.01952,589.82963 c 0,0 -2.30671,1.61082 -6.4562,1.61082 -7.03609,0 -19.27193,-4.78093 -33.8918,-30.69592 v 0 c -24.07864,-43.95625 -48.75652,-53.3377 -49.81966,-53.7243 a 2.8866022,2.8866022 0 0 0 -1.93299,5.43815 c 0.24484,0.0902 25.01292,9.49744 48.67919,54.67791 v 0.058 c -3.16366,5.41238 -6.10825,7.28739 -6.10825,7.28739 9.95491,15.5026 35.35443,130.15483 -144.93579,166.14071 -32.21654,6.4433 -59.49751,9.25903 -82.47434,9.25903 -105.52207,0 -121.10199,-59.45241 -117.54528,-101.72695 a 30.045147,30.045147 0 0 0 -7.5129,-3.65337 c 3.04124,-5.30929 7.80285,-14.36858 15.01291,-29.72943 4.57475,-9.74872 6.55284,-20.61858 5.88274,-32.21654 a 2.9123754,2.9123754 0 0 0 -0.89562,-1.93299 2.8286124,2.8286124 0 0 0 -2.13918,-0.77964 2.8866022,2.8866022 0 0 0 -2.69974,3.05413 c 0.64433,10.81187 -1.12114,20.43173 -5.34151,29.42659 -9.78094,20.8441 -14.89693,29.73587 -17.17141,33.29257 v 0 c -12.49358,15.52838 -29.63922,24.55545 -36.35959,30.92788 a 5.283513,5.283513 0 0 1 -3.66625,1.59794 c -9.8196,0 -20.55415,-30.64437 8.53094,-60.93436 32.86088,-34.19464 35.83769,-63.33128 44.52971,-71.94599 2.76418,-2.73196 7.81573,-3.66624 13.42785,-3.66624 12.06832,0 26.70752,4.31057 26.70752,4.31057 18.26678,-24.9807 32.78355,-21.43688 105.81845,-39.36217 50.7926,-12.4678 81.93311,-15.03224 98.96278,-15.03224 11.89435,0 16.89435,1.25645 16.89435,1.25645 v 0 c 0.11598,0 1.72681,-0.37371 23.65339,-13.64693 7.56444,-4.58119 12.96394,-7.02965 18.40209,-7.02965 11.2629,0 22.674,10.50259 53.74363,34.32351 46.06322,35.34154 38.70496,83.41507 38.70496,83.41507 z"
     id="path16"
     style="stroke-width:0.644331" />
  <path
     class="cls-1"
     d="m 724.27327,593.66984 c 0,0 33.5052,-62.50009 -34.06577,-78.07357 -67.57098,-15.57348 -86.00528,30.54773 -77.26816,59.09158 0,0 -29.63922,-0.9085 -35.74103,8.84022 0,0 -20.27065,-66.9653 -107.60325,-20.50261 -51.46271,27.37118 -33.67917,79.43955 -11.73327,91.2437 3.1379,1.68814 5.07089,6.1147 1.7397,12.95749 a 36.192064,36.192064 0 0 0 -3.31186,20.92786 c 2.66753,19.94204 21.57219,28.75649 70.39959,22.10055 q 7.08764,-0.96649 13.65337,-2.44845 l 1.01804,-0.23841 q 1.60438,-0.36727 3.18299,-0.76031 a 163.0157,163.0157 0 0 0 76.03104,-43.37635 c 2.53222,-5.23197 2.84795,-14.49744 0.48325,-20.88276 -4.22681,-11.39177 -16.06961,-16.84281 -16.19203,-16.89436 v -0.058 c -5.4897,-2.89304 -11.87502,-4.96779 -16.44333,-2.5 -8.52449,4.61341 -15.25131,10.46393 -16.46265,0.92784 -0.56701,-4.45877 0.83119,-27.0168 27.65468,-34.3815 26.82349,-7.3647 38.49877,5.28996 39.94851,11.82347 0.99227,4.433 -1.41108,13.29899 -7.6482,13.64049 -3.38274,0.18041 -4.68429,2.96392 -5.86986,6.28867 a 5.6056784,5.6056784 0 0 0 0.64433,5.15464 39.677894,39.677894 0 0 1 6.64305,11.42399 c 3.15078,8.49872 3.13145,17.7191 0,27.4936 a 101.10195,101.10195 0 0 0 52.44209,3.93686 l 1.24356,-0.24485 1.70103,-0.35438 a 107.60325,107.60325 0 0 0 20.50905,-6.73325 c 40.51553,-17.88662 20.80545,-63.98849 15.04513,-68.40216 z"
     id="path18"
     style="stroke-width:0.644331" />
  <path
     class="cls-1"
     d="m 666.94071,686.18931 a 116.32105,116.32105 0 0 1 -40.65728,-7.36471 179.95516,179.95516 0 0 1 -24.87117,19.38792 176.94614,176.94614 0 0 1 -45.24491,20.93431 c 10.88919,7.3196 31.41757,13.17656 68.48593,2.0232 35.9601,-10.81187 50.70239,-25.12891 56.66245,-35.88923 a 115.90868,115.90868 0 0 1 -14.37502,0.90851 z"
     id="path20"
     style="stroke-width:0.644331" />
  <path
     class="cls-3"
     d="m 555.90318,583.90823 c -6.308,-16.15338 -26.37891,-23.96267 -48.40214,-20.4124 a 37.126343,37.126343 0 1 1 -42.17145,23.35699 c -9.32991,11.26935 -12.97038,24.66498 -8.42141,36.32737 7.73198,19.80673 36.15985,27.0619 63.49237,16.22425 27.33251,-10.83764 43.2346,-35.68948 35.50263,-55.49621 z"
     id="path22"
     style="stroke-width:0.644331" />
  <path
     class="cls-3"
     d="m 687.88791,585.71235 a 32.538708,32.538708 0 0 1 -20.05158,-58.17019 c -18.36987,1.63016 -33.00262,13.3892 -34.24618,28.78871 -1.43686,17.71265 15.38662,33.5052 37.57093,35.3351 13.46007,1.08892 25.77323,-3.22165 33.7436,-10.76032 a 32.364738,32.364738 0 0 1 -17.01677,4.8067 z"
     id="path24"
     style="stroke-width:0.644331" />
</svg>
