<?xml version="1.0" encoding="UTF-8" standalone="no"?>
<svg
   xmlns:dc="http://purl.org/dc/elements/1.1/"
   xmlns:cc="http://creativecommons.org/ns#"
   xmlns:rdf="http://www.w3.org/1999/02/22-rdf-syntax-ns#"
   xmlns:svg="http://www.w3.org/2000/svg"
   xmlns="http://www.w3.org/2000/svg"
   xmlns:sodipodi="http://sodipodi.sourceforge.net/DTD/sodipodi-0.dtd"
   xmlns:inkscape="http://www.inkscape.org/namespaces/inkscape"
   viewBox="0 0 185.49896 185.49894"
   version="1.1"
   id="svg4656"
   sodipodi:docname="submariner.svg"
   width="185.49896"
   height="185.49895"
   inkscape:version="1.0.2 (e86c870879, 2021-01-15)">
  <metadata
     id="metadata4660">
    <rdf:RDF>
      <cc:Work
         rdf:about="">
        <dc:format>image/svg+xml</dc:format>
        <dc:type
           rdf:resource="http://purl.org/dc/dcmitype/StillImage" />
        <dc:title>logo</dc:title>
      </cc:Work>
    </rdf:RDF>
  </metadata>
  <sodipodi:namedview
     pagecolor="#ffffff"
     bordercolor="#666666"
     borderopacity="1"
     objecttolerance="10"
     gridtolerance="10"
     guidetolerance="10"
     inkscape:pageopacity="0"
     inkscape:pageshadow="2"
     inkscape:window-width="1908"
     inkscape:window-height="2096"
     id="namedview4658"
     showgrid="false"
     fit-margin-top="0"
     fit-margin-left="0"
     fit-margin-right="0"
     fit-margin-bottom="0"
     inkscape:zoom="2.7384168"
     inkscape:cx="144.10181"
     inkscape:cy="166.88767"
     inkscape:window-x="1920"
     inkscape:window-y="0"
     inkscape:window-maximized="0"
     inkscape:current-layer="Layer_1"
     inkscape:document-rotation="0" />
  <defs
     id="defs4611">
    <style
       id="style4609">.cls-1{fill:#2adfc3;}.cls-2{fill:#287efb;}.cls-3{fill:#384745;}</style>
  </defs>
  <title
     id="title4613">logo</title>
  <g
     id="Layer_1"
     data-name="Layer 1">
    <path
       class="cls-1"
       d="m 141.80962,39.2117 v 99.14545 H 42.664163 V 39.2117 h 99.145457 m 0,-5.238591 H 42.664163 A 5.2386086,5.2386086 0 0 0 37.425572,39.2117 v 99.14545 a 5.2386086,5.2386086 0 0 0 5.238591,5.23859 h 99.145457 a 5.2386027,5.2386027 0 0 0 5.23859,-5.23859 V 39.2117 a 5.2386027,5.2386027 0 0 0 -5.23859,-5.238591 z"
       id="path4615"
       inkscape:connector-curvature="0"
       style="fill:#2adfc3;stroke-width:0.590961" />
    <path
       class="cls-2"
       d="M 99.875705,111.59258 H 51.395043 V 106.354 H 98.794566 L 112.56019,92.656593 a 2.6190384,2.6190384 0 0 1 1.84749,-0.762599 h 18.67101 v 5.23859 H 115.48882 L 101.7232,110.83 a 2.6193575,2.6193575 0 0 1 -1.847495,0.76258 z"
       id="path4617"
       inkscape:connector-curvature="0"
       style="fill:#287efb;stroke-width:0.590961" />
    <path
       class="cls-2"
       d="M 107.08354,129.05455 H 51.395043 v -5.23859 H 106.0024 l 13.76563,-13.69741 a 2.6190384,2.6190384 0 0 1 1.84749,-0.7626 h 11.46317 v 5.23859 h -10.38201 l -13.76562,13.69742 a 2.619062,2.619062 0 0 1 -1.84752,0.76259 z"
       id="path4619"
       inkscape:connector-curvature="0"
       style="fill:#287efb;stroke-width:0.590961" />
    <path
       class="cls-2"
       d="M 66.461959,76.943533 H 51.395043 v -5.238591 h 13.98577 L 79.146781,58.007531 a 2.6193634,2.6193634 0 0 1 1.847492,-0.762599 h 52.084417 v 5.238591 H 82.075412 L 68.309444,76.180939 a 2.6193457,2.6193457 0 0 1 -1.847485,0.762594 z"
       id="path4621"
       inkscape:connector-curvature="0"
       style="fill:#287efb;stroke-width:0.590961" />
    <path
       class="cls-1"
       d="m 133.07869,97.132573 h -11.60778 a 2.6193398,2.6193398 0 0 1 -1.84749,-0.7626 L 105.8578,82.672562 H 84.742797 A 2.6193398,2.6193398 0 0 1 82.895288,81.909963 L 69.129326,68.212552 H 51.395043 v -5.238591 h 18.81544 a 2.6193693,2.6193693 0 0 1 1.847492,0.762594 l 13.765962,13.697416 h 21.115003 a 2.619062,2.619062 0 0 1 1.84749,0.762594 l 13.76562,13.697417 h 10.52664 z"
       id="path4623"
       inkscape:connector-curvature="0"
       style="fill:#2adfc3;stroke-width:0.590961" />
    <path
       class="cls-1"
       d="m 133.07869,114.59454 h -18.81561 a 2.619062,2.619062 0 0 1 -1.84749,-0.76259 L 98.649964,100.13453 H 77.535302 A 2.6193575,2.6193575 0 0 1 75.68781,99.371936 L 61.921842,85.674508 H 51.395055 v -5.238579 h 11.607932 a 2.6193516,2.6193516 0 0 1 1.847492,0.762599 l 13.765962,13.697411 h 21.114656 a 2.6193398,2.6193398 0 0 1 1.847493,0.7626 l 13.76562,13.697411 h 17.73448 z"
       id="path4625"
       inkscape:connector-curvature="0"
       style="fill:#2adfc3;stroke-width:0.590961" />
    <path
       class="cls-1"
       d="m 133.07869,105.86356 h -15.21152 a 2.6193752,2.6193752 0 0 1 -1.84749,-0.7626 L 102.25372,91.403543 H 81.138875 A 2.6193575,2.6193575 0 0 1 79.29139,90.640944 L 65.525421,76.943533 H 51.395043 v -5.238591 h 15.211518 a 2.6193634,2.6193634 0 0 1 1.847491,0.7626 l 13.765969,13.697416 h 21.114829 a 2.6190679,2.6190679 0 0 1 1.8475,0.762594 l 13.76596,13.697418 h 14.13038 z"
       id="path4627"
       inkscape:connector-curvature="0"
       style="fill:#2adfc3;stroke-width:0.590961" />
    <path
       class="cls-2"
       d="M 103.47946,120.32357 H 51.395043 v -5.23859 h 51.003267 l 13.76597,-13.69741 a 2.6193575,2.6193575 0 0 1 1.84749,-0.7626 h 15.06692 v 5.23859 h -13.98578 l -13.76596,13.69742 a 2.6193752,2.6193752 0 0 1 -1.84749,0.76259 z"
       id="path4629"
       inkscape:connector-curvature="0"
       style="fill:#287efb;stroke-width:0.590961" />
    <path
       class="cls-2"
       d="M 62.858379,68.212552 H 51.395043 V 62.973961 H 61.77724 L 75.543202,49.276887 a 2.6193752,2.6193752 0 0 1 1.847492,-0.762593 h 55.687996 v 5.238591 H 78.471833 L 64.705871,67.449952 a 2.6193516,2.6193516 0 0 1 -1.847492,0.7626 z"
       id="path4631"
       inkscape:connector-curvature="0"
       style="fill:#287efb;stroke-width:0.590961" />
    <path
       class="cls-2"
       d="M 70.065526,85.674508 H 51.395043 V 80.435929 H 68.984404 L 82.750361,66.738855 a 2.6193457,2.6193457 0 0 1 1.847485,-0.762594 h 48.480844 v 5.238615 H 85.678992 L 71.913024,84.91192 a 2.6193398,2.6193398 0 0 1 -1.847498,0.762588 z"
       id="path4633"
       inkscape:connector-curvature="0"
       style="fill:#287efb;stroke-width:0.590961" />
  </g>
</svg>
